<mxfile host="app.diagrams.net" modified="2021-11-16T02:08:17.072Z" agent="5.0 (Windows NT 10.0; Win64; x64) AppleWebKit/537.36 (KHTML, like Gecko) Chrome/95.0.4638.69 Safari/537.36" etag="r4AK8wmgc3q33Biosh-J" version="15.7.4" type="github">
  <diagram id="i2wUuKgSngRXcEZQJhyJ" name="Page-1">
    <mxGraphModel dx="1038" dy="546" grid="1" gridSize="10" guides="1" tooltips="1" connect="1" arrows="1" fold="1" page="1" pageScale="1" pageWidth="850" pageHeight="1100" math="0" shadow="0">
      <root>
        <mxCell id="0" />
        <mxCell id="1" parent="0" />
        <mxCell id="Xc8jqG5AhC5r2K8xa7-4-11" value="" style="rounded=0;whiteSpace=wrap;html=1;fontSize=15;" vertex="1" parent="1">
          <mxGeometry x="140" y="50" width="410" height="410" as="geometry" />
        </mxCell>
        <mxCell id="Xc8jqG5AhC5r2K8xa7-4-3" value="Discente" style="shape=umlActor;verticalLabelPosition=bottom;verticalAlign=top;html=1;outlineConnect=0;" vertex="1" parent="1">
          <mxGeometry x="40" y="190" width="30" height="60" as="geometry" />
        </mxCell>
        <mxCell id="Xc8jqG5AhC5r2K8xa7-4-4" value="Docente" style="shape=umlActor;verticalLabelPosition=bottom;verticalAlign=top;html=1;outlineConnect=0;" vertex="1" parent="1">
          <mxGeometry x="590" y="175" width="30" height="60" as="geometry" />
        </mxCell>
        <mxCell id="Xc8jqG5AhC5r2K8xa7-4-5" value="colocar elementos en el MOOCS" style="ellipse;whiteSpace=wrap;html=1;" vertex="1" parent="1">
          <mxGeometry x="260" y="90" width="110" height="70" as="geometry" />
        </mxCell>
        <mxCell id="Xc8jqG5AhC5r2K8xa7-4-6" value="Evaluar el resultado" style="ellipse;whiteSpace=wrap;html=1;" vertex="1" parent="1">
          <mxGeometry x="360" y="170" width="80" height="70" as="geometry" />
        </mxCell>
        <mxCell id="Xc8jqG5AhC5r2K8xa7-4-8" value="&lt;font style=&quot;font-size: 15px&quot;&gt;MOOCS&lt;/font&gt;" style="text;html=1;strokeColor=none;fillColor=none;align=center;verticalAlign=middle;whiteSpace=wrap;rounded=0;" vertex="1" parent="1">
          <mxGeometry x="300" y="10" width="60" height="30" as="geometry" />
        </mxCell>
        <mxCell id="Xc8jqG5AhC5r2K8xa7-4-15" value="Supervisor" style="shape=umlActor;verticalLabelPosition=bottom;verticalAlign=top;html=1;outlineConnect=0;fontSize=15;" vertex="1" parent="1">
          <mxGeometry x="590" y="300" width="30" height="60" as="geometry" />
        </mxCell>
        <mxCell id="Xc8jqG5AhC5r2K8xa7-4-25" value="Coloca" style="text;html=1;strokeColor=none;fillColor=none;align=center;verticalAlign=middle;whiteSpace=wrap;rounded=0;fontSize=15;" vertex="1" parent="1">
          <mxGeometry x="150" y="120" width="60" height="30" as="geometry" />
        </mxCell>
        <mxCell id="Xc8jqG5AhC5r2K8xa7-4-26" value="" style="endArrow=classic;html=1;rounded=0;fontSize=15;fontColor=none;strokeColor=default;exitX=0.5;exitY=0.5;exitDx=0;exitDy=0;exitPerimeter=0;entryX=1;entryY=0.5;entryDx=0;entryDy=0;" edge="1" parent="1" source="Xc8jqG5AhC5r2K8xa7-4-4" target="Xc8jqG5AhC5r2K8xa7-4-6">
          <mxGeometry width="50" height="50" relative="1" as="geometry">
            <mxPoint x="400" y="300" as="sourcePoint" />
            <mxPoint x="450" y="250" as="targetPoint" />
          </mxGeometry>
        </mxCell>
        <mxCell id="Xc8jqG5AhC5r2K8xa7-4-27" value="" style="endArrow=classic;html=1;rounded=0;fontSize=15;fontColor=none;strokeColor=default;exitX=0.5;exitY=0.5;exitDx=0;exitDy=0;exitPerimeter=0;entryX=0.022;entryY=0.634;entryDx=0;entryDy=0;entryPerimeter=0;" edge="1" parent="1" source="Xc8jqG5AhC5r2K8xa7-4-3" target="Xc8jqG5AhC5r2K8xa7-4-5">
          <mxGeometry width="50" height="50" relative="1" as="geometry">
            <mxPoint x="400" y="300" as="sourcePoint" />
            <mxPoint x="450" y="250" as="targetPoint" />
          </mxGeometry>
        </mxCell>
      </root>
    </mxGraphModel>
  </diagram>
</mxfile>
